Yeh  Jo hai Zindagi Season 2 episode25 

Jumru.DAT

Format                                   : CDXA/MPEG-PS
File size                                : 226 MiB
Duration                                 : 22mn 21s
Overall bit rate                         : 1 413 Kbps

Video
ID                                       : 224 (0xE0)
Format                                   : MPEG Video
Format version                           : Version 1
Format settings, BVOP                    : Yes
Format settings, Matrix                  : Custom
Duration                                 : 22mn 21s
Bit rate                                 : 1 160 Kbps
Maximum bit rate                         : 1 120 Kbps
Width                                    : 352 pixels
Height                                   : 288 pixels
Display aspect ratio                     : 4:3
Frame rate                               : 25.000 fps
Standard                                 : PAL
Color space                              : YUV
Bit depth                                : 8 bits
Scan type                                : Progressive
Compression mode                         : Lossy
Bits/(Pixel*Frame)                       : 0.458
Stream size                              : 186 MiB (82%)

Audio
ID                                       : 192 (0xC0)
Format                                   : MPEG Audio
Format version                           : Version 1
Format profile                           : Layer 2
Duration                                 : 22mn 21s
Bit rate mode                            : Constant
Bit rate                                 : 224 Kbps
Channel(s)                               : 2 channels
Sampling rate                            : 44.1 KHz
Compression mode                         : Lossy
Stream size                              : 35.8 MiB (16%)

Screens: 
http://i.minus.com/iTNvvEbYbrHD9.jpg 
http://i.minus.com/iGjVoqOk2I1gh.jpg 
http://i.minus.com/ibQLQgZYK1P2S.jpg 
http://i.minus.com/izT0VRvITV38b.jpg 
http://i.minus.com/iY5TWaxG5sXVo.jpg

seed amd enjoy..
please maintain ratio to support this torrent